<svg width="1025" height="1024" viewBox="0 0 1025 1024" fill="none" xmlns="http://www.w3.org/2000/svg">
<path d="M512.5 96C742.25 96 928.5 282.25 928.5 512C928.5 741.75 742.25 928 512.5 928C282.75 928 96.5 741.75 96.5 512C96.5 282.25 282.75 96 512.5 96ZM557.754 173.254C532.761 148.262 492.239 148.262 467.246 173.254L173.754 466.746C148.762 491.739 148.762 532.261 173.754 557.254L467.246 850.746C492.239 875.738 532.761 875.738 557.754 850.746L851.246 557.254C876.238 532.261 876.238 491.739 851.246 466.746L557.754 173.254Z" fill="#3F79FF"/>
<path d="M879.54 39.0251L807.525 111.04C798.158 120.407 798.158 135.593 807.525 144.96L879.54 216.975C888.907 226.342 904.093 226.342 913.46 216.975L985.475 144.96C994.842 135.593 994.842 120.407 985.475 111.04L913.46 39.0251C904.093 29.6583 888.907 29.6583 879.54 39.0251Z" fill="#3F79FF"/>
<path d="M879.54 807.025L807.525 879.04C798.158 888.407 798.158 903.593 807.525 912.96L879.54 984.975C888.907 994.342 904.093 994.342 913.46 984.975L985.475 912.96C994.842 903.593 994.842 888.407 985.475 879.04L913.46 807.025C904.093 797.658 888.907 797.658 879.54 807.025Z" fill="#3F79FF"/>
<path d="M111.54 39.0251L39.5251 111.04C30.1583 120.407 30.1583 135.593 39.5251 144.96L111.54 216.975C120.907 226.342 136.093 226.342 145.46 216.975L217.475 144.96C226.842 135.593 226.842 120.407 217.475 111.04L145.46 39.0251C136.093 29.6583 120.907 29.6583 111.54 39.0251Z" fill="#3F79FF"/>
<path d="M111.54 807.025L39.5251 879.04C30.1583 888.407 30.1583 903.593 39.5251 912.96L111.54 984.975C120.907 994.342 136.093 994.342 145.46 984.975L217.475 912.96C226.842 903.593 226.842 888.407 217.475 879.04L145.46 807.025C136.093 797.658 120.907 797.658 111.54 807.025Z" fill="#3F79FF"/>
</svg>
