<svg width="1915" height="512" viewBox="0 0 1915 512" fill="none" xmlns="http://www.w3.org/2000/svg">
<path d="M256.272 48C371.147 48 464.272 141.125 464.272 256C464.272 370.875 371.147 464 256.272 464C141.397 464 48.272 370.875 48.272 256C48.272 141.125 141.397 48 256.272 48ZM278.899 86.627C266.402 74.1308 246.142 74.1308 233.645 86.627L86.8989 233.373C74.4028 245.87 74.4028 266.13 86.8989 278.627L233.645 425.373C246.142 437.869 266.402 437.869 278.899 425.373L425.645 278.627C438.141 266.13 438.141 245.87 425.645 233.373L278.899 86.627Z" fill="white"/>
<path d="M439.792 19.5126L403.785 55.5199C399.101 60.2033 399.101 67.7967 403.785 72.4801L439.792 108.487C444.475 113.171 452.069 113.171 456.752 108.487L492.759 72.4801C497.443 67.7967 497.443 60.2033 492.759 55.5199L456.752 19.5126C452.069 14.8291 444.475 14.8291 439.792 19.5126Z" fill="white"/>
<path d="M439.792 403.513L403.785 439.52C399.101 444.203 399.101 451.797 403.785 456.48L439.792 492.487C444.475 497.171 452.069 497.171 456.752 492.487L492.759 456.48C497.443 451.797 497.443 444.203 492.759 439.52L456.752 403.513C452.069 398.829 444.475 398.829 439.792 403.513Z" fill="white"/>
<path d="M55.7919 19.5126L19.7845 55.5199C15.1011 60.2033 15.1011 67.7967 19.7845 72.4801L55.7919 108.487C60.4753 113.171 68.0686 113.171 72.752 108.487L108.759 72.4801C113.443 67.7967 113.443 60.2033 108.759 55.5199L72.7521 19.5126C68.0686 14.8291 60.4753 14.8291 55.7919 19.5126Z" fill="white"/>
<path d="M55.7919 403.513L19.7845 439.52C15.1011 444.203 15.1011 451.797 19.7845 456.48L55.7919 492.487C60.4753 497.171 68.0686 497.171 72.752 492.487L108.759 456.48C113.443 451.797 113.443 444.203 108.759 439.52L72.7521 403.513C68.0686 398.829 60.4753 398.829 55.7919 403.513Z" fill="white"/>
<path d="M1824.54 401.2C1794.41 401.2 1769.21 391.067 1748.94 370.8C1728.94 350.533 1718.94 325.6 1718.94 296C1718.94 266.133 1728.94 241.2 1748.94 221.2C1769.21 200.933 1794.41 190.8 1824.54 190.8C1844.01 190.8 1861.74 195.467 1877.74 204.8C1893.74 214.133 1905.74 226.667 1913.74 242.4L1876.54 264C1872.01 254.4 1865.08 246.933 1855.74 241.6C1846.68 236 1836.14 233.2 1824.14 233.2C1806.54 233.2 1791.74 239.2 1779.74 251.2C1768.01 263.2 1762.14 278.133 1762.14 296C1762.14 313.867 1768.01 328.8 1779.74 340.8C1791.74 352.8 1806.54 358.8 1824.14 358.8C1835.88 358.8 1846.41 356 1855.74 350.4C1865.34 344.8 1872.54 337.333 1877.34 328L1914.54 349.2C1906.01 365.2 1893.74 377.867 1877.74 387.2C1861.74 396.533 1844.01 401.2 1824.54 401.2Z" fill="white"/>
<path d="M1697.58 158C1692.25 163.333 1685.85 166 1678.38 166C1670.92 166 1664.38 163.333 1658.78 158C1653.45 152.4 1650.78 145.867 1650.78 138.4C1650.78 130.933 1653.45 124.533 1658.78 119.2C1664.12 113.6 1670.65 110.8 1678.38 110.8C1686.12 110.8 1692.65 113.6 1697.98 119.2C1703.32 124.533 1705.98 130.933 1705.98 138.4C1705.98 145.867 1703.18 152.4 1697.58 158ZM1656.78 396V196H1699.98V396H1656.78Z" fill="white"/>
<path d="M1575.27 229.6C1586.2 204.8 1606.73 192.4 1636.87 192.4V239.2C1620.33 238.133 1605.93 242.133 1593.67 251.2C1581.4 260 1575.27 274.667 1575.27 295.2V396H1532.07V196H1575.27V229.6Z" fill="white"/>
<path d="M1349.25 314.4C1352.45 329.6 1359.79 341.333 1371.25 349.6C1382.72 357.6 1396.72 361.6 1413.25 361.6C1436.19 361.6 1453.39 353.333 1464.85 336.8L1500.45 357.6C1480.72 386.667 1451.52 401.2 1412.85 401.2C1380.32 401.2 1354.05 391.333 1334.05 371.6C1314.05 351.6 1304.05 326.4 1304.05 296C1304.05 266.133 1313.92 241.2 1333.65 221.2C1353.39 200.933 1378.72 190.8 1409.65 190.8C1438.99 190.8 1462.99 201.067 1481.65 221.6C1500.59 242.133 1510.05 267.067 1510.05 296.4C1510.05 300.933 1509.52 306.933 1508.45 314.4H1349.25ZM1348.85 279.2H1466.45C1463.52 262.933 1456.72 250.667 1446.05 242.4C1435.65 234.133 1423.39 230 1409.25 230C1393.25 230 1379.92 234.4 1369.25 243.2C1358.59 252 1351.79 264 1348.85 279.2Z" fill="white"/>
<path d="M1207.94 190.8C1230.87 190.8 1249.4 198.133 1263.54 212.8C1277.67 227.467 1284.74 247.6 1284.74 273.2V396H1241.54V277.6C1241.54 262.667 1237.54 251.2 1229.54 243.2C1221.54 235.2 1210.6 231.2 1196.74 231.2C1181.54 231.2 1169.27 236 1159.94 245.6C1150.6 254.933 1145.94 269.333 1145.94 288.8V396H1102.74V196H1145.94V221.6C1159 201.067 1179.67 190.8 1207.94 190.8Z" fill="white"/>
<path d="M923.925 314.4C927.125 329.6 934.458 341.333 945.925 349.6C957.392 357.6 971.392 361.6 987.925 361.6C1010.86 361.6 1028.06 353.333 1039.53 336.8L1075.13 357.6C1055.39 386.667 1026.19 401.2 987.525 401.2C954.992 401.2 928.725 391.333 908.725 371.6C888.725 351.6 878.725 326.4 878.725 296C878.725 266.133 888.592 241.2 908.325 221.2C928.058 200.933 953.392 190.8 984.325 190.8C1013.66 190.8 1037.66 201.067 1056.33 221.6C1075.26 242.133 1084.73 267.067 1084.73 296.4C1084.73 300.933 1084.19 306.933 1083.13 314.4H923.925ZM923.525 279.2H1041.13C1038.19 262.933 1031.39 250.667 1020.73 242.4C1010.33 234.133 998.058 230 983.925 230C967.925 230 954.592 234.4 943.925 243.2C933.258 252 926.458 264 923.525 279.2Z" fill="white"/>
<path d="M862.672 251.2V270.4C862.672 308.8 850.005 340.267 824.672 364.8C799.339 389.067 766.272 401.2 725.472 401.2C682.272 401.2 646.539 387.2 618.272 359.2C590.272 331.2 576.272 296.8 576.272 256C576.272 215.467 590.272 181.2 618.272 153.2C646.539 124.933 681.472 110.8 723.072 110.8C749.205 110.8 773.072 116.8 794.672 128.8C816.272 140.8 833.072 156.933 845.072 177.2L805.472 200C798.005 186.667 786.939 176 772.272 168C757.605 159.733 741.205 155.6 723.072 155.6C693.739 155.6 669.605 165.2 650.672 184.4C631.739 203.6 622.272 227.6 622.272 256.4C622.272 285.2 631.739 309.067 650.672 328C669.872 346.933 694.939 356.4 725.872 356.4C750.672 356.4 770.805 350.667 786.272 339.2C802.005 327.467 812.005 311.867 816.272 292.4H722.672V251.2H862.672Z" fill="white"/>
</svg>
